<?xml version="1.0" encoding="UTF-8" standalone="no"?>
<!-- Created with Inkscape (http://www.inkscape.org/) -->

<svg
   width="220"
   height="140"
   viewBox="0 0 58.208332 37.041668"
   version="1.1"
   id="svg5"
   inkscape:version="1.1 (c4e8f9ed74, 2021-05-24)"
   sodipodi:docname="banner.svg"
   inkscape:export-filename="/home/luighi/activities-docs-generator/images/banner.png"
   inkscape:export-xdpi="300"
   inkscape:export-ydpi="300"
   xmlns:inkscape="http://www.inkscape.org/namespaces/inkscape"
   xmlns:sodipodi="http://sodipodi.sourceforge.net/DTD/sodipodi-0.dtd"
   xmlns:xlink="http://www.w3.org/1999/xlink"
   xmlns="http://www.w3.org/2000/svg"
   xmlns:svg="http://www.w3.org/2000/svg">
  <sodipodi:namedview
     id="namedview7"
     pagecolor="#ffffff"
     bordercolor="#666666"
     borderopacity="1.0"
     inkscape:pageshadow="2"
     inkscape:pageopacity="0.0"
     inkscape:pagecheckerboard="0"
     inkscape:document-units="mm"
     showgrid="false"
     units="px"
     width="220px"
     inkscape:zoom="2.0489618"
     inkscape:cx="90.777679"
     inkscape:cy="55.393906"
     inkscape:window-width="1366"
     inkscape:window-height="738"
     inkscape:window-x="0"
     inkscape:window-y="30"
     inkscape:window-maximized="1"
     inkscape:current-layer="layer1" />
  <defs
     id="defs2">
    <radialGradient
       cx="1.7583691"
       cy="1.5082694"
       fx="1.7583691"
       fy="1.5082694"
       r="89.498177"
       gradientTransform="scale(0.85280287,1.1726039)"
       id="radialGradient21370"
       gradientUnits="userSpaceOnUse">
      <stop
         stop-color="#FFFFFF"
         stop-opacity="0.1"
         offset="0%"
         id="stop21366"
         style="stop-color:#4f8ef5;stop-opacity:1" />
      <stop
         stop-color="#FFFFFF"
         stop-opacity="0.1"
         offset="0.47774208"
         id="stop21372"
         style="stop-color:#ffffff;stop-opacity:0.05098039;" />
      <stop
         stop-color="#FFFFFF"
         stop-opacity="0"
         offset="100%"
         id="stop21368"
         style="stop-color:#22a565;stop-opacity:1" />
    </radialGradient>
    <mask
       id="mask-2"
       fill="#ffffff">
      <path
         d="M 7.8272569,0 H 1.1740885 C 0.52833984,0 0,0.52833984 0,1.1740885 V 16.045877 c 0,0.645748 0.52833984,1.174088 1.1740885,1.174088 H 11.349523 c 0.645748,0 1.174088,-0.52834 1.174088,-1.174088 V 4.6963542 Z"
         id="use1299"
         style="stroke-width:0.264583" />
    </mask>
    <mask
       id="mask-4"
       fill="#ffffff">
      <path
         d="M 7.8272569,0 H 1.1740885 C 0.52833984,0 0,0.52833984 0,1.1740885 V 16.045877 c 0,0.645748 0.52833984,1.174088 1.1740885,1.174088 H 11.349523 c 0.645748,0 1.174088,-0.52834 1.174088,-1.174088 V 4.6963542 Z"
         id="use1305"
         style="stroke-width:0.264583" />
    </mask>
    <linearGradient
       x1="0.50005394"
       y1="0.085861064"
       x2="0.50005394"
       y2="1.0001394"
       id="linearGradient-7"
       gradientUnits="userSpaceOnUse">
      <stop
         stop-color="#263238"
         stop-opacity="0.2"
         offset="0%"
         id="stop1283" />
      <stop
         stop-color="#263238"
         stop-opacity="0.02"
         offset="100%"
         id="stop1285" />
    </linearGradient>
    <mask
       id="mask-6"
       fill="#ffffff">
      <path
         d="M 7.8272569,0 H 1.1740885 C 0.52833984,0 0,0.52833984 0,1.1740885 V 16.045877 c 0,0.645748 0.52833984,1.174088 1.1740885,1.174088 H 11.349523 c 0.645748,0 1.174088,-0.52834 1.174088,-1.174088 V 4.6963542 Z"
         id="use1313"
         style="stroke-width:0.264583" />
    </mask>
    <mask
       id="mask-9"
       fill="#ffffff">
      <path
         d="M 7.8272569,0 H 1.1740885 C 0.52833984,0 0,0.52833984 0,1.1740885 V 16.045877 c 0,0.645748 0.52833984,1.174088 1.1740885,1.174088 H 11.349523 c 0.645748,0 1.174088,-0.52834 1.174088,-1.174088 V 4.6963542 Z"
         id="use1322"
         style="stroke-width:0.264583" />
    </mask>
    <mask
       id="mask-11"
       fill="#ffffff">
      <path
         d="M 7.8272569,0 H 1.1740885 C 0.52833984,0 0,0.52833984 0,1.1740885 V 16.045877 c 0,0.645748 0.52833984,1.174088 1.1740885,1.174088 H 11.349523 c 0.645748,0 1.174088,-0.52834 1.174088,-1.174088 V 4.6963542 Z"
         id="use1334"
         style="stroke-width:0.264583" />
    </mask>
    <mask
       id="mask-13"
       fill="#ffffff">
      <path
         d="M 7.8272569,0 H 1.1740885 C 0.52833984,0 0,0.52833984 0,1.1740885 V 16.045877 c 0,0.645748 0.52833984,1.174088 1.1740885,1.174088 H 11.349523 c 0.645748,0 1.174088,-0.52834 1.174088,-1.174088 V 4.6963542 Z"
         id="use1343"
         style="stroke-width:0.264583" />
    </mask>
    <mask
       id="mask-15"
       fill="#ffffff">
      <path
         d="M 7.8272569,0 H 1.1740885 C 0.52833984,0 0,0.52833984 0,1.1740885 V 16.045877 c 0,0.645748 0.52833984,1.174088 1.1740885,1.174088 H 11.349523 c 0.645748,0 1.174088,-0.52834 1.174088,-1.174088 V 4.6963542 Z"
         id="use1352"
         style="stroke-width:0.264583" />
    </mask>
    <radialGradient
       cx="1.7583691"
       cy="1.5082694"
       fx="1.7583691"
       fy="1.5082694"
       r="89.498169"
       gradientTransform="scale(0.85280286,1.1726039)"
       id="radialGradient-16"
       gradientUnits="userSpaceOnUse">
      <stop
         stop-color="#FFFFFF"
         stop-opacity="0.1"
         offset="0%"
         id="stop1292" />
      <stop
         stop-color="#FFFFFF"
         stop-opacity="0"
         offset="100%"
         id="stop1294" />
    </radialGradient>
    <mask
       id="mask-2-0"
       fill="#ffffff">
      <path
         d="M 7.7721354,0 H 1.1658203 C 0.52461914,0 0,0.52766335 0,1.1725852 V 16.025331 c 0,0.644922 0.52461914,1.172586 1.1658203,1.172586 H 11.269596 c 0.641202,0 1.165821,-0.527664 1.165821,-1.172586 V 4.6903409 Z"
         id="use1121"
         style="stroke-width:0.264583" />
    </mask>
    <linearGradient
       x1="0.50005394"
       y1="0.085861064"
       x2="0.50005394"
       y2="1.0001394"
       id="linearGradient-5"
       gradientUnits="userSpaceOnUse">
      <stop
         stop-color="#1A237E"
         stop-opacity="0.2"
         offset="0%"
         id="stop1104" />
      <stop
         stop-color="#1A237E"
         stop-opacity="0.02"
         offset="100%"
         id="stop1106" />
    </linearGradient>
    <mask
       id="mask-4-8"
       fill="#ffffff">
      <path
         d="M 7.7721354,0 H 1.1658203 C 0.52461914,0 0,0.52766335 0,1.1725852 V 16.025331 c 0,0.644922 0.52461914,1.172586 1.1658203,1.172586 H 11.269596 c 0.641202,0 1.165821,-0.527664 1.165821,-1.172586 V 4.6903409 Z"
         id="use1127"
         style="stroke-width:0.264583" />
    </mask>
    <mask
       id="mask-7"
       fill="#ffffff">
      <path
         d="M 7.7721354,0 H 1.1658203 C 0.52461914,0 0,0.52766335 0,1.1725852 V 16.025331 c 0,0.644922 0.52461914,1.172586 1.1658203,1.172586 H 11.269596 c 0.641202,0 1.165821,-0.527664 1.165821,-1.172586 V 4.6903409 Z"
         id="use1136"
         style="stroke-width:0.264583" />
    </mask>
    <mask
       id="mask-9-1"
       fill="#ffffff">
      <path
         d="M 7.7721354,0 H 1.1658203 C 0.52461914,0 0,0.52766335 0,1.1725852 V 16.025331 c 0,0.644922 0.52461914,1.172586 1.1658203,1.172586 H 11.269596 c 0.641202,0 1.165821,-0.527664 1.165821,-1.172586 V 4.6903409 Z"
         id="use1144"
         style="stroke-width:0.264583" />
    </mask>
    <mask
       id="mask-11-3"
       fill="#ffffff">
      <path
         d="M 7.7721354,0 H 1.1658203 C 0.52461914,0 0,0.52766335 0,1.1725852 V 16.025331 c 0,0.644922 0.52461914,1.172586 1.1658203,1.172586 H 11.269596 c 0.641202,0 1.165821,-0.527664 1.165821,-1.172586 V 4.6903409 Z"
         id="use1156"
         style="stroke-width:0.264583" />
    </mask>
    <mask
       id="mask-13-1"
       fill="#ffffff">
      <path
         d="M 7.7721354,0 H 1.1658203 C 0.52461914,0 0,0.52766335 0,1.1725852 V 16.025331 c 0,0.644922 0.52461914,1.172586 1.1658203,1.172586 H 11.269596 c 0.641202,0 1.165821,-0.527664 1.165821,-1.172586 V 4.6903409 Z"
         id="use1165"
         style="stroke-width:0.264583" />
    </mask>
    <mask
       id="mask-15-1"
       fill="#ffffff">
      <path
         d="M 7.7721354,0 H 1.1658203 C 0.52461914,0 0,0.52766335 0,1.1725852 V 16.025331 c 0,0.644922 0.52461914,1.172586 1.1658203,1.172586 H 11.269596 c 0.641202,0 1.165821,-0.527664 1.165821,-1.172586 V 4.6903409 Z"
         id="use1174"
         style="stroke-width:0.264583" />
    </mask>
    <radialGradient
       cx="1.7510446"
       cy="1.5019867"
       fx="1.7510446"
       fy="1.5019867"
       r="89.125366"
       gradientTransform="scale(0.8503393,1.1760012)"
       id="radialGradient-16-0"
       gradientUnits="userSpaceOnUse">
      <stop
         stop-color="#FFFFFF"
         stop-opacity="0.1"
         offset="0%"
         id="stop1114" />
      <stop
         stop-color="#FFFFFF"
         stop-opacity="0"
         offset="100%"
         id="stop1116" />
    </radialGradient>
    <path
       d="M 29.375,0 H 4.40625 C 1.9828125,0 0,1.9943182 0,4.4318182 V 60.568182 C 0,63.005682 1.9828125,65 4.40625,65 h 38.1875 C 45.017187,65 47,63.005682 47,60.568182 V 17.727273 Z"
       id="path-1" />
    <path
       d="M 29.375,0 H 4.40625 C 1.9828125,0 0,1.9943182 0,4.4318182 V 60.568182 C 0,63.005682 1.9828125,65 4.40625,65 h 38.1875 C 45.017187,65 47,63.005682 47,60.568182 V 17.727273 Z"
       id="path-3" />
    <linearGradient
       x1="38.940922"
       y1="17.791889"
       x2="38.940922"
       y2="32.769283"
       id="linearGradient-5-0"
       gradientTransform="scale(0.99722329,1.0027844)"
       gradientUnits="userSpaceOnUse">
      <stop
         stop-color="#1A237E"
         stop-opacity="0.2"
         offset="0%"
         id="stop2757" />
      <stop
         stop-color="#1A237E"
         stop-opacity="0.02"
         offset="100%"
         id="stop2759" />
    </linearGradient>
    <path
       d="M 29.375,0 H 4.40625 C 1.9828125,0 0,1.9943182 0,4.4318182 V 60.568182 C 0,63.005682 1.9828125,65 4.40625,65 h 38.1875 C 45.017187,65 47,63.005682 47,60.568182 V 17.727273 Z"
       id="path-6" />
    <path
       d="M 29.375,0 H 4.40625 C 1.9828125,0 0,1.9943182 0,4.4318182 V 60.568182 C 0,63.005682 1.9828125,65 4.40625,65 h 38.1875 C 45.017187,65 47,63.005682 47,60.568182 V 17.727273 Z"
       id="path-8" />
    <path
       d="M 29.375,0 H 4.40625 C 1.9828125,0 0,1.9943182 0,4.4318182 V 60.568182 C 0,63.005682 1.9828125,65 4.40625,65 h 38.1875 C 45.017187,65 47,63.005682 47,60.568182 V 17.727273 Z"
       id="path-10" />
    <path
       d="M 29.375,0 H 4.40625 C 1.9828125,0 0,1.9943182 0,4.4318182 V 60.568182 C 0,63.005682 1.9828125,65 4.40625,65 h 38.1875 C 45.017187,65 47,63.005682 47,60.568182 V 17.727273 Z"
       id="path-12" />
    <path
       d="M 29.375,0 H 4.40625 C 1.9828125,0 0,1.9943182 0,4.4318182 V 60.568182 C 0,63.005682 1.9828125,65 4.40625,65 h 38.1875 C 45.017187,65 47,63.005682 47,60.568182 V 17.727273 Z"
       id="path-14" />
    <radialGradient
       cx="1.7510446"
       cy="1.5019867"
       fx="1.7510446"
       fy="1.5019867"
       r="89.125366"
       gradientTransform="scale(0.8503393,1.1760012)"
       id="radialGradient-16-5"
       gradientUnits="userSpaceOnUse">
      <stop
         stop-color="#FFFFFF"
         stop-opacity="0.1"
         offset="0%"
         id="stop2767" />
      <stop
         stop-color="#FFFFFF"
         stop-opacity="0"
         offset="100%"
         id="stop2769" />
    </radialGradient>
    <path
       d="M 29.583333,0 H 4.4375 C 1.996875,0 0,1.996875 0,4.4375 v 56.208333 c 0,2.440625 1.996875,4.4375 4.4375,4.4375 h 38.458333 c 2.440625,0 4.4375,-1.996875 4.4375,-4.4375 V 17.75 Z"
       id="path-1-2" />
    <path
       d="M 29.583333,0 H 4.4375 C 1.996875,0 0,1.996875 0,4.4375 v 56.208333 c 0,2.440625 1.996875,4.4375 4.4375,4.4375 h 38.458333 c 2.440625,0 4.4375,-1.996875 4.4375,-4.4375 V 17.75 Z"
       id="path-3-6" />
    <path
       d="M 29.583333,0 H 4.4375 C 1.996875,0 0,1.996875 0,4.4375 v 56.208333 c 0,2.440625 1.996875,4.4375 4.4375,4.4375 h 38.458333 c 2.440625,0 4.4375,-1.996875 4.4375,-4.4375 V 17.75 Z"
       id="path-5" />
    <linearGradient
       x1="39.103809"
       y1="17.86631"
       x2="39.103809"
       y2="32.906357"
       id="linearGradient-7-7"
       gradientTransform="scale(1.0001124,0.99988761)"
       gradientUnits="userSpaceOnUse">
      <stop
         stop-color="#263238"
         stop-opacity="0.2"
         offset="0%"
         id="stop3075" />
      <stop
         stop-color="#263238"
         stop-opacity="0.02"
         offset="100%"
         id="stop3077" />
    </linearGradient>
    <path
       d="M 29.583333,0 H 4.4375 C 1.996875,0 0,1.996875 0,4.4375 v 56.208333 c 0,2.440625 1.996875,4.4375 4.4375,4.4375 h 38.458333 c 2.440625,0 4.4375,-1.996875 4.4375,-4.4375 V 17.75 Z"
       id="path-8-5" />
    <path
       d="M 29.583333,0 H 4.4375 C 1.996875,0 0,1.996875 0,4.4375 v 56.208333 c 0,2.440625 1.996875,4.4375 4.4375,4.4375 h 38.458333 c 2.440625,0 4.4375,-1.996875 4.4375,-4.4375 V 17.75 Z"
       id="path-10-6" />
    <path
       d="M 29.583333,0 H 4.4375 C 1.996875,0 0,1.996875 0,4.4375 v 56.208333 c 0,2.440625 1.996875,4.4375 4.4375,4.4375 h 38.458333 c 2.440625,0 4.4375,-1.996875 4.4375,-4.4375 V 17.75 Z"
       id="path-12-9" />
    <path
       d="M 29.583333,0 H 4.4375 C 1.996875,0 0,1.996875 0,4.4375 v 56.208333 c 0,2.440625 1.996875,4.4375 4.4375,4.4375 h 38.458333 c 2.440625,0 4.4375,-1.996875 4.4375,-4.4375 V 17.75 Z"
       id="path-14-8" />
    <radialGradient
       cx="1.7583691"
       cy="1.5082694"
       fx="1.7583691"
       fy="1.5082694"
       r="89.498177"
       gradientTransform="scale(0.85280287,1.1726039)"
       id="radialGradient-16-7"
       gradientUnits="userSpaceOnUse">
      <stop
         stop-color="#FFFFFF"
         stop-opacity="0.1"
         offset="0%"
         id="stop3084" />
      <stop
         stop-color="#FFFFFF"
         stop-opacity="0"
         offset="100%"
         id="stop3086" />
    </radialGradient>
    <linearGradient
       inkscape:collect="always"
       xlink:href="#radialGradient21370"
       id="linearGradient20480"
       x1="66.217781"
       y1="-5.750391"
       x2="-7.3345733"
       y2="41.497349"
       gradientUnits="userSpaceOnUse" />
  </defs>
  <g
     inkscape:label="Layer 1"
     inkscape:groupmode="layer"
     id="layer1">
    <rect
       style="fill:url(#linearGradient20480);stroke:none;stroke-width:0.348096;stop-color:#000000;fill-opacity:1"
       id="rect20442"
       width="58.055534"
       height="37.356319"
       x="0.1384306"
       y="-0.17029943" />
    <g
       inkscape:label="Layer 1"
       id="layer1-7"
       transform="translate(19.527264,-6.0002882)">
      <g
         id="Docs-icon"
         style="fill:none;fill-rule:evenodd;stroke:none;stroke-width:1"
         transform="matrix(0.33428567,0,0,0.33428567,20.76018,11.360716)"
         inkscape:export-filename="/home/luighi/activities-docs-generator/images/logo-generator.png"
         inkscape:export-xdpi="300"
         inkscape:export-ydpi="300">
        <g
           id="g2836">
          <g
             id="Clipped">
            <mask
               id="mask-2-6"
               fill="#ffffff">
              <use
                 xlink:href="#path-1"
                 id="use2774"
                 x="0"
                 y="0"
                 width="100%"
                 height="100%" />
            </mask>
            <g
               id="SVGID_1_" />
            <path
               d="M 29.375,0 H 4.40625 C 1.9828125,0 0,1.9943182 0,4.4318182 V 60.568182 C 0,63.005682 1.9828125,65 4.40625,65 h 38.1875 C 45.017187,65 47,63.005682 47,60.568182 V 17.727273 L 36.71875,10.340909 Z"
               id="Path"
               fill="#4285f4"
               fill-rule="nonzero"
               mask="url(#mask-2-6)" />
          </g>
          <g
             id="g2787">
            <mask
               id="mask-4-6"
               fill="#ffffff">
              <use
                 xlink:href="#path-3"
                 id="use2780"
                 x="0"
                 y="0"
                 width="100%"
                 height="100%" />
            </mask>
            <g
               id="g2783" />
            <polygon
               id="polygon2785"
               fill="url(#linearGradient-5)"
               fill-rule="nonzero"
               mask="url(#mask-4-6)"
               points="47,32.858239 47,17.727273 30.663828,16.430966 "
               style="fill:url(#linearGradient-5-0)" />
          </g>
          <g
             id="g2795">
            <mask
               id="mask-7-4"
               fill="#ffffff">
              <use
                 xlink:href="#path-6"
                 id="use2789"
                 x="0"
                 y="0"
                 width="100%"
                 height="100%" />
            </mask>
            <g
               id="g2792" />
            <path
               d="m 11.75,47.272727 h 23.5 v -2.954545 h -23.5 z m 0,5.909091 H 29.375 V 50.227273 H 11.75 Z M 11.75,32.5 v 2.954546 h 23.5 V 32.5 Z m 0,8.863636 h 23.5 v -2.954545 h -23.5 z"
               id="Shape"
               fill="#f1f1f1"
               fill-rule="nonzero"
               mask="url(#mask-7-4)" />
          </g>
          <g
             id="g2807">
            <mask
               id="mask-9-0"
               fill="#ffffff">
              <use
                 xlink:href="#path-8"
                 id="use2797"
                 x="0"
                 y="0"
                 width="100%"
                 height="100%" />
            </mask>
            <g
               id="g2800" />
            <g
               id="Group"
               mask="url(#mask-9-0)">
              <g
                 transform="translate(26.4375,-2.954545)"
                 id="g2804">
                <path
                   d="M 2.9375,2.9545455 V 16.25 c 0,2.448579 1.9717969,4.431818 4.40625,4.431818 H 20.5625 Z"
                   id="path2802"
                   fill="#a1c2fa"
                   fill-rule="nonzero" />
              </g>
            </g>
          </g>
          <g
             id="g2816">
            <mask
               id="mask-11-0"
               fill="#ffffff">
              <use
                 xlink:href="#path-10"
                 id="use2809"
                 x="0"
                 y="0"
                 width="100%"
                 height="100%" />
            </mask>
            <g
               id="g2812" />
            <path
               d="M 4.40625,0 C 1.9828125,0 0,1.9943182 0,4.4318182 V 4.8011364 C 0,2.3636364 1.9828125,0.36931818 4.40625,0.36931818 H 29.375 V 0 Z"
               id="path2814"
               fill-opacity="0.2"
               fill="#ffffff"
               fill-rule="nonzero"
               mask="url(#mask-11-0)" />
          </g>
          <g
             id="g2825">
            <mask
               id="mask-13-4"
               fill="#ffffff">
              <use
                 xlink:href="#path-12"
                 id="use2818"
                 x="0"
                 y="0"
                 width="100%"
                 height="100%" />
            </mask>
            <g
               id="g2821" />
            <path
               d="M 42.59375,64.630682 H 4.40625 C 1.9828125,64.630682 0,62.636364 0,60.198864 v 0.369318 C 0,63.005682 1.9828125,65 4.40625,65 h 38.1875 C 45.017187,65 47,63.005682 47,60.568182 v -0.369318 c 0,2.4375 -1.982813,4.431818 -4.40625,4.431818 z"
               id="path2823"
               fill-opacity="0.2"
               fill="#1a237e"
               fill-rule="nonzero"
               mask="url(#mask-13-4)" />
          </g>
          <g
             id="g2834">
            <mask
               id="mask-15-6"
               fill="#ffffff">
              <use
                 xlink:href="#path-14"
                 id="use2827"
                 x="0"
                 y="0"
                 width="100%"
                 height="100%" />
            </mask>
            <g
               id="g2830" />
            <path
               d="m 33.78125,17.727273 c -2.434453,0 -4.40625,-1.983239 -4.40625,-4.431818 v 0.369318 c 0,2.448579 1.971797,4.431818 4.40625,4.431818 H 47 v -0.369318 z"
               id="path2832"
               fill-opacity="0.1"
               fill="#1a237e"
               fill-rule="nonzero"
               mask="url(#mask-15-6)" />
          </g>
        </g>
        <path
           d="M 29.375,0 H 4.40625 C 1.9828125,0 0,1.9943182 0,4.4318182 V 60.568182 C 0,63.005682 1.9828125,65 4.40625,65 h 38.1875 C 45.017187,65 47,63.005682 47,60.568182 V 17.727273 Z"
           id="path2838"
           fill="url(#radialGradient-16)"
           fill-rule="nonzero"
           style="fill:url(#radialGradient-16-5)" />
      </g>
      <g
         id="Sheets-icon"
         transform="matrix(0.33428567,0,0,0.33428567,4.1006603,7.8938)"
         style="fill:none;fill-rule:evenodd;stroke:none;stroke-width:1"
         inkscape:export-filename="/home/luighi/activities-docs-generator/images/logo-generator.png"
         inkscape:export-xdpi="300"
         inkscape:export-ydpi="300">
        <g
           id="g3153">
          <g
             id="Clipped-2">
            <mask
               id="mask-2-8"
               fill="#ffffff">
              <use
                 xlink:href="#path-1-2"
                 id="use3091"
                 x="0"
                 y="0"
                 width="100%"
                 height="100%" />
            </mask>
            <g
               id="SVGID_1_-2" />
            <path
               d="M 29.583333,0 H 4.4375 C 1.996875,0 0,1.996875 0,4.4375 v 56.208333 c 0,2.440625 1.996875,4.4375 4.4375,4.4375 h 38.458333 c 2.440625,0 4.4375,-1.996875 4.4375,-4.4375 V 17.75 L 36.979167,10.354167 Z"
               id="Path-9"
               fill="#0f9d58"
               fill-rule="nonzero"
               mask="url(#mask-2-8)" />
          </g>
          <g
             id="g3103">
            <mask
               id="mask-4-9"
               fill="#ffffff">
              <use
                 xlink:href="#path-3-6"
                 id="use3097"
                 x="0"
                 y="0"
                 width="100%"
                 height="100%" />
            </mask>
            <g
               id="g3100" />
            <path
               d="M 11.833333,31.802083 V 53.25 H 35.5 V 31.802083 Z M 22.1875,50.291667 H 14.791667 V 46.59375 H 22.1875 Z m 0,-5.916667 H 14.791667 V 40.677083 H 22.1875 Z m 0,-5.916667 H 14.791667 V 34.760417 H 22.1875 Z M 32.541667,50.291667 H 25.145833 V 46.59375 h 7.395834 z m 0,-5.916667 h -7.395834 v -3.697917 h 7.395834 z m 0,-5.916667 h -7.395834 v -3.697916 h 7.395834 z"
               id="Shape-6"
               fill="#f1f1f1"
               fill-rule="nonzero"
               mask="url(#mask-4-9)" />
          </g>
          <g
             id="g3112">
            <mask
               id="mask-6-0"
               fill="#ffffff">
              <use
                 xlink:href="#path-5"
                 id="use3105"
                 x="0"
                 y="0"
                 width="100%"
                 height="100%" />
            </mask>
            <g
               id="g3108" />
            <polygon
               id="polygon3110"
               fill="url(#linearGradient-7)"
               fill-rule="nonzero"
               mask="url(#mask-6-0)"
               points="47.333333,17.75 30.881302,16.452031 47.333333,32.900365 "
               style="fill:url(#linearGradient-7-7)" />
          </g>
          <g
             id="g3124">
            <mask
               id="mask-9-2"
               fill="#ffffff">
              <use
                 xlink:href="#path-8-5"
                 id="use3114"
                 x="0"
                 y="0"
                 width="100%"
                 height="100%" />
            </mask>
            <g
               id="g3117" />
            <g
               id="Group-7"
               mask="url(#mask-9-2)">
              <g
                 transform="translate(26.625,-2.958333)"
                 id="g3121">
                <path
                   d="M 2.9583333,2.9583333 V 16.270833 c 0,2.451719 1.9857813,4.4375 4.4375,4.4375 H 20.708333 Z"
                   id="path3119"
                   fill="#87ceac"
                   fill-rule="nonzero" />
              </g>
            </g>
          </g>
          <g
             id="g3133">
            <mask
               id="mask-11-6"
               fill="#ffffff">
              <use
                 xlink:href="#path-10-6"
                 id="use3126"
                 x="0"
                 y="0"
                 width="100%"
                 height="100%" />
            </mask>
            <g
               id="g3129" />
            <path
               d="M 4.4375,0 C 1.996875,0 0,1.996875 0,4.4375 V 4.8072917 C 0,2.3666667 1.996875,0.36979167 4.4375,0.36979167 H 29.583333 V 0 Z"
               id="path3131"
               fill-opacity="0.2"
               fill="#ffffff"
               fill-rule="nonzero"
               mask="url(#mask-11-6)" />
          </g>
          <g
             id="g3142">
            <mask
               id="mask-13-13"
               fill="#ffffff">
              <use
                 xlink:href="#path-12-9"
                 id="use3135"
                 x="0"
                 y="0"
                 width="100%"
                 height="100%" />
            </mask>
            <g
               id="g3138" />
            <path
               d="M 42.895833,64.713542 H 4.4375 C 1.996875,64.713542 0,62.716667 0,60.276042 v 0.369791 c 0,2.440625 1.996875,4.4375 4.4375,4.4375 h 38.458333 c 2.440625,0 4.4375,-1.996875 4.4375,-4.4375 v -0.369791 c 0,2.440625 -1.996875,4.4375 -4.4375,4.4375 z"
               id="path3140"
               fill-opacity="0.2"
               fill="#263238"
               fill-rule="nonzero"
               mask="url(#mask-13-13)" />
          </g>
          <g
             id="g3151">
            <mask
               id="mask-15-2"
               fill="#ffffff">
              <use
                 xlink:href="#path-14-8"
                 id="use3144"
                 x="0"
                 y="0"
                 width="100%"
                 height="100%" />
            </mask>
            <g
               id="g3147" />
            <path
               d="m 34.020833,17.75 c -2.451718,0 -4.4375,-1.985781 -4.4375,-4.4375 v 0.369792 c 0,2.451718 1.985782,4.4375 4.4375,4.4375 h 13.3125 V 17.75 Z"
               id="path3149"
               fill-opacity="0.1"
               fill="#263238"
               fill-rule="nonzero"
               mask="url(#mask-15-2)" />
          </g>
        </g>
        <path
           d="M 29.583333,0 H 4.4375 C 1.996875,0 0,1.996875 0,4.4375 v 56.208333 c 0,2.440625 1.996875,4.4375 4.4375,4.4375 h 38.458333 c 2.440625,0 4.4375,-1.996875 4.4375,-4.4375 V 17.75 Z"
           id="path3155"
           fill="url(#radialGradient-16)"
           fill-rule="nonzero"
           style="fill:url(#radialGradient-16-7)" />
      </g>
      <path
         id="rect3409"
         style="fill:#ff0000;stroke:none;stroke-width:0.236816;stop-color:#000000"
         d="m 22.653516,18.43895 v 2.099883 h -8.100001 v 3.000233 h 8.100001 v 2.099884 l 3.599999,-3.600001 z"
         inkscape:export-filename="/home/luighi/activities-docs-generator/images/logo-generator.png"
         inkscape:export-xdpi="300"
         inkscape:export-ydpi="300" />
    </g>
    <text
       xml:space="preserve"
       style="font-weight:500;font-size:4.23333px;line-height:1.25;font-family:'Noto Sans';-inkscape-font-specification:'Noto Sans Medium';text-align:start;letter-spacing:0px;word-spacing:0px;text-anchor:start;stroke-width:0.264583"
       x="3.2820184"
       y="22.534248"
       id="text1890"><tspan
         sodipodi:role="line"
         id="tspan1888"
         style="font-style:normal;font-variant:normal;font-weight:600;font-stretch:condensed;font-family:'Noto Sans';-inkscape-font-specification:'Noto Sans Semi-Bold Condensed';text-align:start;text-anchor:start;stroke-width:0.264583"
         x="3.2820184"
         y="22.534248">Generador</tspan><tspan
         sodipodi:role="line"
         style="font-style:normal;font-variant:normal;font-weight:600;font-stretch:condensed;font-family:'Noto Sans';-inkscape-font-specification:'Noto Sans Semi-Bold Condensed';text-align:start;text-anchor:start;stroke-width:0.264583"
         x="3.2820184"
         y="27.825911"
         id="tspan1892">de resumen y</tspan><tspan
         sodipodi:role="line"
         style="font-style:normal;font-variant:normal;font-weight:600;font-stretch:condensed;font-family:'Noto Sans';-inkscape-font-specification:'Noto Sans Semi-Bold Condensed';text-align:start;text-anchor:start;stroke-width:0.264583"
         x="3.2820184"
         y="33.117573"
         id="tspan1894">lista de actividades</tspan></text>
  </g>
</svg>
