<?xml version="1.0" encoding="UTF-8" standalone="no"?>
<!-- Created with Inkscape (http://www.inkscape.org/) -->

<svg
   width="220"
   height="140"
   viewBox="0 0 58.208332 37.041668"
   version="1.1"
   id="svg5"
   inkscape:version="1.1 (c4e8f9ed74, 2021-05-24)"
   sodipodi:docname="banner.svg"
   inkscape:export-filename="/home/luighi/activities-docs-generator/docs/images/banner.png"
   inkscape:export-xdpi="300"
   inkscape:export-ydpi="300"
   xmlns:inkscape="http://www.inkscape.org/namespaces/inkscape"
   xmlns:sodipodi="http://sodipodi.sourceforge.net/DTD/sodipodi-0.dtd"
   xmlns:xlink="http://www.w3.org/1999/xlink"
   xmlns="http://www.w3.org/2000/svg"
   xmlns:svg="http://www.w3.org/2000/svg">
  <sodipodi:namedview
     id="namedview7"
     pagecolor="#ffffff"
     bordercolor="#666666"
     borderopacity="1.0"
     inkscape:pageshadow="2"
     inkscape:pageopacity="0.0"
     inkscape:pagecheckerboard="0"
     inkscape:document-units="mm"
     showgrid="false"
     units="px"
     width="220px"
     inkscape:zoom="2.0489618"
     inkscape:cx="90.777681"
     inkscape:cy="55.393907"
     inkscape:window-width="1920"
     inkscape:window-height="1050"
     inkscape:window-x="1366"
     inkscape:window-y="30"
     inkscape:window-maximized="1"
     inkscape:current-layer="layer1" />
  <defs
     id="defs2">
    <radialGradient
       cx="1.7583691"
       cy="1.5082694"
       fx="1.7583691"
       fy="1.5082694"
       r="89.498177"
       gradientTransform="scale(0.85280287,1.1726039)"
       id="radialGradient21370"
       gradientUnits="userSpaceOnUse">
      <stop
         stop-color="#FFFFFF"
         stop-opacity="0.1"
         offset="0%"
         id="stop21366"
         style="stop-color:#4f8ef5;stop-opacity:1" />
      <stop
         stop-color="#FFFFFF"
         stop-opacity="0.1"
         offset="0.47774208"
         id="stop21372"
         style="stop-color:#ffffff;stop-opacity:0.05098039;" />
      <stop
         stop-color="#FFFFFF"
         stop-opacity="0"
         offset="100%"
         id="stop21368"
         style="stop-color:#22a565;stop-opacity:1" />
    </radialGradient>
    <mask
       id="mask-2"
       fill="#ffffff">
      <path
         d="M 7.8272569,0 H 1.1740885 C 0.52833984,0 0,0.52833984 0,1.1740885 V 16.045877 c 0,0.645748 0.52833984,1.174088 1.1740885,1.174088 H 11.349523 c 0.645748,0 1.174088,-0.52834 1.174088,-1.174088 V 4.6963542 Z"
         id="use1299"
         style="stroke-width:0.264583" />
    </mask>
    <mask
       id="mask-4"
       fill="#ffffff">
      <path
         d="M 7.8272569,0 H 1.1740885 C 0.52833984,0 0,0.52833984 0,1.1740885 V 16.045877 c 0,0.645748 0.52833984,1.174088 1.1740885,1.174088 H 11.349523 c 0.645748,0 1.174088,-0.52834 1.174088,-1.174088 V 4.6963542 Z"
         id="use1305"
         style="stroke-width:0.264583" />
    </mask>
    <linearGradient
       x1="0.50005394"
       y1="0.085861064"
       x2="0.50005394"
       y2="1.0001394"
       id="linearGradient-7"
       gradientUnits="userSpaceOnUse">
      <stop
         stop-color="#263238"
         stop-opacity="0.2"
         offset="0%"
         id="stop1283" />
      <stop
         stop-color="#263238"
         stop-opacity="0.02"
         offset="100%"
         id="stop1285" />
    </linearGradient>
    <mask
       id="mask-6"
       fill="#ffffff">
      <path
         d="M 7.8272569,0 H 1.1740885 C 0.52833984,0 0,0.52833984 0,1.1740885 V 16.045877 c 0,0.645748 0.52833984,1.174088 1.1740885,1.174088 H 11.349523 c 0.645748,0 1.174088,-0.52834 1.174088,-1.174088 V 4.6963542 Z"
         id="use1313"
         style="stroke-width:0.264583" />
    </mask>
    <mask
       id="mask-9"
       fill="#ffffff">
      <path
         d="M 7.8272569,0 H 1.1740885 C 0.52833984,0 0,0.52833984 0,1.1740885 V 16.045877 c 0,0.645748 0.52833984,1.174088 1.1740885,1.174088 H 11.349523 c 0.645748,0 1.174088,-0.52834 1.174088,-1.174088 V 4.6963542 Z"
         id="use1322"
         style="stroke-width:0.264583" />
    </mask>
    <mask
       id="mask-11"
       fill="#ffffff">
      <path
         d="M 7.8272569,0 H 1.1740885 C 0.52833984,0 0,0.52833984 0,1.1740885 V 16.045877 c 0,0.645748 0.52833984,1.174088 1.1740885,1.174088 H 11.349523 c 0.645748,0 1.174088,-0.52834 1.174088,-1.174088 V 4.6963542 Z"
         id="use1334"
         style="stroke-width:0.264583" />
    </mask>
    <mask
       id="mask-13"
       fill="#ffffff">
      <path
         d="M 7.8272569,0 H 1.1740885 C 0.52833984,0 0,0.52833984 0,1.1740885 V 16.045877 c 0,0.645748 0.52833984,1.174088 1.1740885,1.174088 H 11.349523 c 0.645748,0 1.174088,-0.52834 1.174088,-1.174088 V 4.6963542 Z"
         id="use1343"
         style="stroke-width:0.264583" />
    </mask>
    <mask
       id="mask-15"
       fill="#ffffff">
      <path
         d="M 7.8272569,0 H 1.1740885 C 0.52833984,0 0,0.52833984 0,1.1740885 V 16.045877 c 0,0.645748 0.52833984,1.174088 1.1740885,1.174088 H 11.349523 c 0.645748,0 1.174088,-0.52834 1.174088,-1.174088 V 4.6963542 Z"
         id="use1352"
         style="stroke-width:0.264583" />
    </mask>
    <radialGradient
       cx="1.7583691"
       cy="1.5082694"
       fx="1.7583691"
       fy="1.5082694"
       r="89.498169"
       gradientTransform="scale(0.85280286,1.1726039)"
       id="radialGradient-16"
       gradientUnits="userSpaceOnUse">
      <stop
         stop-color="#FFFFFF"
         stop-opacity="0.1"
         offset="0%"
         id="stop1292" />
      <stop
         stop-color="#FFFFFF"
         stop-opacity="0"
         offset="100%"
         id="stop1294" />
    </radialGradient>
    <mask
       id="mask-2-0"
       fill="#ffffff">
      <path
         d="M 7.7721354,0 H 1.1658203 C 0.52461914,0 0,0.52766335 0,1.1725852 V 16.025331 c 0,0.644922 0.52461914,1.172586 1.1658203,1.172586 H 11.269596 c 0.641202,0 1.165821,-0.527664 1.165821,-1.172586 V 4.6903409 Z"
         id="use1121"
         style="stroke-width:0.264583" />
    </mask>
    <linearGradient
       x1="0.50005394"
       y1="0.085861064"
       x2="0.50005394"
       y2="1.0001394"
       id="linearGradient-5"
       gradientUnits="userSpaceOnUse">
      <stop
         stop-color="#1A237E"
         stop-opacity="0.2"
         offset="0%"
         id="stop1104" />
      <stop
         stop-color="#1A237E"
         stop-opacity="0.02"
         offset="100%"
         id="stop1106" />
    </linearGradient>
    <mask
       id="mask-4-8"
       fill="#ffffff">
      <path
         d="M 7.7721354,0 H 1.1658203 C 0.52461914,0 0,0.52766335 0,1.1725852 V 16.025331 c 0,0.644922 0.52461914,1.172586 1.1658203,1.172586 H 11.269596 c 0.641202,0 1.165821,-0.527664 1.165821,-1.172586 V 4.6903409 Z"
         id="use1127"
         style="stroke-width:0.264583" />
    </mask>
    <mask
       id="mask-7"
       fill="#ffffff">
      <path
         d="M 7.7721354,0 H 1.1658203 C 0.52461914,0 0,0.52766335 0,1.1725852 V 16.025331 c 0,0.644922 0.52461914,1.172586 1.1658203,1.172586 H 11.269596 c 0.641202,0 1.165821,-0.527664 1.165821,-1.172586 V 4.6903409 Z"
         id="use1136"
         style="stroke-width:0.264583" />
    </mask>
    <mask
       id="mask-9-1"
       fill="#ffffff">
      <path
         d="M 7.7721354,0 H 1.1658203 C 0.52461914,0 0,0.52766335 0,1.1725852 V 16.025331 c 0,0.644922 0.52461914,1.172586 1.1658203,1.172586 H 11.269596 c 0.641202,0 1.165821,-0.527664 1.165821,-1.172586 V 4.6903409 Z"
         id="use1144"
         style="stroke-width:0.264583" />
    </mask>
    <mask
       id="mask-11-3"
       fill="#ffffff">
      <path
         d="M 7.7721354,0 H 1.1658203 C 0.52461914,0 0,0.52766335 0,1.1725852 V 16.025331 c 0,0.644922 0.52461914,1.172586 1.1658203,1.172586 H 11.269596 c 0.641202,0 1.165821,-0.527664 1.165821,-1.172586 V 4.6903409 Z"
         id="use1156"
         style="stroke-width:0.264583" />
    </mask>
    <mask
       id="mask-13-1"
       fill="#ffffff">
      <path
         d="M 7.7721354,0 H 1.1658203 C 0.52461914,0 0,0.52766335 0,1.1725852 V 16.025331 c 0,0.644922 0.52461914,1.172586 1.1658203,1.172586 H 11.269596 c 0.641202,0 1.165821,-0.527664 1.165821,-1.172586 V 4.6903409 Z"
         id="use1165"
         style="stroke-width:0.264583" />
    </mask>
    <mask
       id="mask-15-1"
       fill="#ffffff">
      <path
         d="M 7.7721354,0 H 1.1658203 C 0.52461914,0 0,0.52766335 0,1.1725852 V 16.025331 c 0,0.644922 0.52461914,1.172586 1.1658203,1.172586 H 11.269596 c 0.641202,0 1.165821,-0.527664 1.165821,-1.172586 V 4.6903409 Z"
         id="use1174"
         style="stroke-width:0.264583" />
    </mask>
    <radialGradient
       cx="1.7510446"
       cy="1.5019867"
       fx="1.7510446"
       fy="1.5019867"
       r="89.125366"
       gradientTransform="scale(0.8503393,1.1760012)"
       id="radialGradient-16-0"
       gradientUnits="userSpaceOnUse">
      <stop
         stop-color="#FFFFFF"
         stop-opacity="0.1"
         offset="0%"
         id="stop1114" />
      <stop
         stop-color="#FFFFFF"
         stop-opacity="0"
         offset="100%"
         id="stop1116" />
    </radialGradient>
    <path
       d="M 29.375,0 H 4.40625 C 1.9828125,0 0,1.9943182 0,4.4318182 V 60.568182 C 0,63.005682 1.9828125,65 4.40625,65 h 38.1875 C 45.017187,65 47,63.005682 47,60.568182 V 17.727273 Z"
       id="path-1" />
    <path
       d="M 29.375,0 H 4.40625 C 1.9828125,0 0,1.9943182 0,4.4318182 V 60.568182 C 0,63.005682 1.9828125,65 4.40625,65 h 38.1875 C 45.017187,65 47,63.005682 47,60.568182 V 17.727273 Z"
       id="path-3" />
    <linearGradient
       x1="38.940922"
       y1="17.791889"
       x2="38.940922"
       y2="32.769283"
       id="linearGradient-5-0"
       gradientTransform="scale(0.99722329,1.0027844)"
       gradientUnits="userSpaceOnUse">
      <stop
         stop-color="#1A237E"
         stop-opacity="0.2"
         offset="0%"
         id="stop2757" />
      <stop
         stop-color="#1A237E"
         stop-opacity="0.02"
         offset="100%"
         id="stop2759" />
    </linearGradient>
    <path
       d="M 29.375,0 H 4.40625 C 1.9828125,0 0,1.9943182 0,4.4318182 V 60.568182 C 0,63.005682 1.9828125,65 4.40625,65 h 38.1875 C 45.017187,65 47,63.005682 47,60.568182 V 17.727273 Z"
       id="path-6" />
    <path
       d="M 29.375,0 H 4.40625 C 1.9828125,0 0,1.9943182 0,4.4318182 V 60.568182 C 0,63.005682 1.9828125,65 4.40625,65 h 38.1875 C 45.017187,65 47,63.005682 47,60.568182 V 17.727273 Z"
       id="path-8" />
    <path
       d="M 29.375,0 H 4.40625 C 1.9828125,0 0,1.9943182 0,4.4318182 V 60.568182 C 0,63.005682 1.9828125,65 4.40625,65 h 38.1875 C 45.017187,65 47,63.005682 47,60.568182 V 17.727273 Z"
       id="path-10" />
    <path
       d="M 29.375,0 H 4.40625 C 1.9828125,0 0,1.9943182 0,4.4318182 V 60.568182 C 0,63.005682 1.9828125,65 4.40625,65 h 38.1875 C 45.017187,65 47,63.005682 47,60.568182 V 17.727273 Z"
       id="path-12" />
    <path
       d="M 29.375,0 H 4.40625 C 1.9828125,0 0,1.9943182 0,4.4318182 V 60.568182 C 0,63.005682 1.9828125,65 4.40625,65 h 38.1875 C 45.017187,65 47,63.005682 47,60.568182 V 17.727273 Z"
       id="path-14" />
    <radialGradient
       cx="1.7510446"
       cy="1.5019867"
       fx="1.7510446"
       fy="1.5019867"
       r="89.125366"
       gradientTransform="scale(0.8503393,1.1760012)"
       id="radialGradient-16-5"
       gradientUnits="userSpaceOnUse">
      <stop
         stop-color="#FFFFFF"
         stop-opacity="0.1"
         offset="0%"
         id="stop2767" />
      <stop
         stop-color="#FFFFFF"
         stop-opacity="0"
         offset="100%"
         id="stop2769" />
    </radialGradient>
    <path
       d="M 29.583333,0 H 4.4375 C 1.996875,0 0,1.996875 0,4.4375 v 56.208333 c 0,2.440625 1.996875,4.4375 4.4375,4.4375 h 38.458333 c 2.440625,0 4.4375,-1.996875 4.4375,-4.4375 V 17.75 Z"
       id="path-1-2" />
    <path
       d="M 29.583333,0 H 4.4375 C 1.996875,0 0,1.996875 0,4.4375 v 56.208333 c 0,2.440625 1.996875,4.4375 4.4375,4.4375 h 38.458333 c 2.440625,0 4.4375,-1.996875 4.4375,-4.4375 V 17.75 Z"
       id="path-3-6" />
    <path
       d="M 29.583333,0 H 4.4375 C 1.996875,0 0,1.996875 0,4.4375 v 56.208333 c 0,2.440625 1.996875,4.4375 4.4375,4.4375 h 38.458333 c 2.440625,0 4.4375,-1.996875 4.4375,-4.4375 V 17.75 Z"
       id="path-5" />
    <linearGradient
       x1="39.103809"
       y1="17.86631"
       x2="39.103809"
       y2="32.906357"
       id="linearGradient-7-7"
       gradientTransform="scale(1.0001124,0.99988761)"
       gradientUnits="userSpaceOnUse">
      <stop
         stop-color="#263238"
         stop-opacity="0.2"
         offset="0%"
         id="stop3075" />
      <stop
         stop-color="#263238"
         stop-opacity="0.02"
         offset="100%"
         id="stop3077" />
    </linearGradient>
    <path
       d="M 29.583333,0 H 4.4375 C 1.996875,0 0,1.996875 0,4.4375 v 56.208333 c 0,2.440625 1.996875,4.4375 4.4375,4.4375 h 38.458333 c 2.440625,0 4.4375,-1.996875 4.4375,-4.4375 V 17.75 Z"
       id="path-8-5" />
    <path
       d="M 29.583333,0 H 4.4375 C 1.996875,0 0,1.996875 0,4.4375 v 56.208333 c 0,2.440625 1.996875,4.4375 4.4375,4.4375 h 38.458333 c 2.440625,0 4.4375,-1.996875 4.4375,-4.4375 V 17.75 Z"
       id="path-10-6" />
    <path
       d="M 29.583333,0 H 4.4375 C 1.996875,0 0,1.996875 0,4.4375 v 56.208333 c 0,2.440625 1.996875,4.4375 4.4375,4.4375 h 38.458333 c 2.440625,0 4.4375,-1.996875 4.4375,-4.4375 V 17.75 Z"
       id="path-12-9" />
    <path
       d="M 29.583333,0 H 4.4375 C 1.996875,0 0,1.996875 0,4.4375 v 56.208333 c 0,2.440625 1.996875,4.4375 4.4375,4.4375 h 38.458333 c 2.440625,0 4.4375,-1.996875 4.4375,-4.4375 V 17.75 Z"
       id="path-14-8" />
    <radialGradient
       cx="1.7583691"
       cy="1.5082694"
       fx="1.7583691"
       fy="1.5082694"
       r="89.498177"
       gradientTransform="scale(0.85280287,1.1726039)"
       id="radialGradient-16-7"
       gradientUnits="userSpaceOnUse">
      <stop
         stop-color="#FFFFFF"
         stop-opacity="0.1"
         offset="0%"
         id="stop3084" />
      <stop
         stop-color="#FFFFFF"
         stop-opacity="0"
         offset="100%"
         id="stop3086" />
    </radialGradient>
    <linearGradient
       inkscape:collect="always"
       xlink:href="#radialGradient21370"
       id="linearGradient20480"
       x1="66.217781"
       y1="-5.750391"
       x2="-7.3345733"
       y2="41.497349"
       gradientUnits="userSpaceOnUse" />
  </defs>
  <g
     inkscape:label="Layer 1"
     inkscape:groupmode="layer"
     id="layer1">
    <rect
       style="fill:url(#linearGradient20480);stroke:none;stroke-width:0.348096;stop-color:#000000;fill-opacity:1"
       id="rect20442"
       width="58.055534"
       height="37.356319"
       x="0.1384306"
       y="-0.17029943" />
    <text
       xml:space="preserve"
       style="font-weight:500;font-size:4.23333px;line-height:1.25;font-family:'Noto Sans';-inkscape-font-specification:'Noto Sans Medium';text-align:start;letter-spacing:0px;word-spacing:0px;text-anchor:start;stroke-width:0.264583"
       x="3.2820184"
       y="22.534248"
       id="text1890"><tspan
         sodipodi:role="line"
         id="tspan1888"
         style="font-style:normal;font-variant:normal;font-weight:600;font-stretch:condensed;font-family:'Noto Sans';-inkscape-font-specification:'Noto Sans Semi-Bold Condensed';text-align:start;text-anchor:start;stroke-width:0.264583"
         x="3.2820184"
         y="22.534248">Generador</tspan><tspan
         sodipodi:role="line"
         style="font-style:normal;font-variant:normal;font-weight:600;font-stretch:condensed;font-family:'Noto Sans';-inkscape-font-specification:'Noto Sans Semi-Bold Condensed';text-align:start;text-anchor:start;stroke-width:0.264583"
         x="3.2820184"
         y="27.825911"
         id="tspan1892">de resumen y</tspan><tspan
         sodipodi:role="line"
         style="font-style:normal;font-variant:normal;font-weight:600;font-stretch:condensed;font-family:'Noto Sans';-inkscape-font-specification:'Noto Sans Semi-Bold Condensed';text-align:start;text-anchor:start;stroke-width:0.264583"
         x="3.2820184"
         y="33.117573"
         id="tspan1894">lista de actividades</tspan></text>
    <text
       xml:space="preserve"
       style="font-style:normal;font-variant:normal;font-weight:500;font-stretch:normal;font-size:29.5822px;line-height:1.25;font-family:'Noto Sans';-inkscape-font-specification:'Noto Sans, Medium';font-variant-ligatures:normal;font-variant-caps:normal;font-variant-numeric:normal;font-variant-east-asian:normal;text-align:center;letter-spacing:0px;word-spacing:0px;text-anchor:middle;fill:#5290f5;fill-opacity:1;stroke-width:1.28706"
       x="46.134441"
       y="26.965296"
       id="text6726"><tspan
         sodipodi:role="line"
         id="tspan6724"
         style="font-style:normal;font-variant:normal;font-weight:bold;font-stretch:condensed;font-size:29.5822px;font-family:'Noto Sans';-inkscape-font-specification:'Noto Sans Bold Condensed';font-variant-ligatures:normal;font-variant-caps:normal;font-variant-numeric:normal;font-variant-east-asian:normal;fill:#5290f5;fill-opacity:1;stroke-width:1.28706"
         x="46.134441"
         y="26.965296">D</tspan></text>
    <path
       id="rect3409"
       style="fill:#ff0000;stroke:none;stroke-width:0.451233;stop-color:#000000"
       d="M 43.523563,9.0123808 V 13.013536 H 28.089662 v 5.716706 h 15.433901 v 4.00116 l 6.859485,-6.859515 z"
       inkscape:export-filename="/home/luighi/activities-docs-generator/images/logo-generator.png"
       inkscape:export-xdpi="300"
       inkscape:export-ydpi="300" />
    <text
       xml:space="preserve"
       style="font-weight:500;font-size:29.2893px;line-height:1.25;font-family:'Noto Sans';-inkscape-font-specification:'Noto Sans Medium';text-align:center;letter-spacing:0px;word-spacing:0px;text-anchor:middle;fill:#24a566;fill-opacity:1;stroke-width:0.93169"
       x="32.305401"
       y="23.19323"
       id="text7286"><tspan
         sodipodi:role="line"
         id="tspan7284"
         style="font-style:normal;font-variant:normal;font-weight:bold;font-stretch:condensed;font-size:29.2893px;font-family:'Noto Sans';-inkscape-font-specification:'Noto Sans, Bold Condensed';font-variant-ligatures:normal;font-variant-caps:normal;font-variant-numeric:normal;font-variant-east-asian:normal;fill:#24a566;fill-opacity:1;stroke-width:0.93169"
         x="32.305401"
         y="23.19323">S</tspan></text>
  </g>
</svg>
