<?xml version="1.0" encoding="UTF-8" standalone="no"?>
<!-- Created with Inkscape (http://www.inkscape.org/) -->

<svg
   width="48"
   height="48"
   viewBox="0 0 12.7 12.699999"
   version="1.1"
   id="svg5"
   inkscape:version="1.1 (c4e8f9ed74, 2021-05-24)"
   sodipodi:docname="logo-generator.svg"
   inkscape:export-filename="/home/luighi/activities-docs-generator/docs/images/logo-generator.png"
   inkscape:export-xdpi="300"
   inkscape:export-ydpi="300"
   xmlns:inkscape="http://www.inkscape.org/namespaces/inkscape"
   xmlns:sodipodi="http://sodipodi.sourceforge.net/DTD/sodipodi-0.dtd"
   xmlns="http://www.w3.org/2000/svg"
   xmlns:svg="http://www.w3.org/2000/svg">
  <sodipodi:namedview
     id="namedview7"
     pagecolor="#ffffff"
     bordercolor="#666666"
     borderopacity="1.0"
     inkscape:pageshadow="2"
     inkscape:pageopacity="0.0"
     inkscape:pagecheckerboard="0"
     inkscape:document-units="mm"
     showgrid="false"
     units="px"
     inkscape:zoom="11.590678"
     inkscape:cx="22.086714"
     inkscape:cy="20.57688"
     inkscape:window-width="1920"
     inkscape:window-height="1050"
     inkscape:window-x="1366"
     inkscape:window-y="30"
     inkscape:window-maximized="1"
     inkscape:current-layer="layer1" />
  <defs
     id="defs2">
    <mask
       id="mask-2-8"
       fill="#ffffff">
      <path
         d="M 7.8272569,0 H 1.1740885 C 0.52833984,0 0,0.52833984 0,1.1740885 V 16.045877 c 0,0.645748 0.52833984,1.174088 1.1740885,1.174088 H 11.349522 c 0.645749,0 1.174089,-0.52834 1.174089,-1.174088 V 4.6963542 Z"
         id="use3091"
         style="stroke-width:0.264583" />
    </mask>
    <mask
       id="mask-4-9"
       fill="#ffffff">
      <path
         d="M 7.8272569,0 H 1.1740885 C 0.52833984,0 0,0.52833984 0,1.1740885 V 16.045877 c 0,0.645748 0.52833984,1.174088 1.1740885,1.174088 H 11.349522 c 0.645749,0 1.174089,-0.52834 1.174089,-1.174088 V 4.6963542 Z"
         id="use3097"
         style="stroke-width:0.264583" />
    </mask>
    <linearGradient
       x1="39.103809"
       y1="17.86631"
       x2="39.103809"
       y2="32.906357"
       id="linearGradient-7-7"
       gradientTransform="scale(1.0001124,0.99988761)"
       gradientUnits="userSpaceOnUse">
      <stop
         stop-color="#263238"
         stop-opacity="0.2"
         offset="0%"
         id="stop3075" />
      <stop
         stop-color="#263238"
         stop-opacity="0.02"
         offset="100%"
         id="stop3077" />
    </linearGradient>
    <mask
       id="mask-6-0"
       fill="#ffffff">
      <path
         d="M 7.8272569,0 H 1.1740885 C 0.52833984,0 0,0.52833984 0,1.1740885 V 16.045877 c 0,0.645748 0.52833984,1.174088 1.1740885,1.174088 H 11.349522 c 0.645749,0 1.174089,-0.52834 1.174089,-1.174088 V 4.6963542 Z"
         id="use3105"
         style="stroke-width:0.264583" />
    </mask>
    <mask
       id="mask-9-2"
       fill="#ffffff">
      <path
         d="M 7.8272569,0 H 1.1740885 C 0.52833984,0 0,0.52833984 0,1.1740885 V 16.045877 c 0,0.645748 0.52833984,1.174088 1.1740885,1.174088 H 11.349522 c 0.645749,0 1.174089,-0.52834 1.174089,-1.174088 V 4.6963542 Z"
         id="use3114"
         style="stroke-width:0.264583" />
    </mask>
    <mask
       id="mask-11-6"
       fill="#ffffff">
      <path
         d="M 7.8272569,0 H 1.1740885 C 0.52833984,0 0,0.52833984 0,1.1740885 V 16.045877 c 0,0.645748 0.52833984,1.174088 1.1740885,1.174088 H 11.349522 c 0.645749,0 1.174089,-0.52834 1.174089,-1.174088 V 4.6963542 Z"
         id="use3126"
         style="stroke-width:0.264583" />
    </mask>
    <mask
       id="mask-13-13"
       fill="#ffffff">
      <path
         d="M 7.8272569,0 H 1.1740885 C 0.52833984,0 0,0.52833984 0,1.1740885 V 16.045877 c 0,0.645748 0.52833984,1.174088 1.1740885,1.174088 H 11.349522 c 0.645749,0 1.174089,-0.52834 1.174089,-1.174088 V 4.6963542 Z"
         id="use3135"
         style="stroke-width:0.264583" />
    </mask>
    <mask
       id="mask-15-2"
       fill="#ffffff">
      <path
         d="M 7.8272569,0 H 1.1740885 C 0.52833984,0 0,0.52833984 0,1.1740885 V 16.045877 c 0,0.645748 0.52833984,1.174088 1.1740885,1.174088 H 11.349522 c 0.645749,0 1.174089,-0.52834 1.174089,-1.174088 V 4.6963542 Z"
         id="use3144"
         style="stroke-width:0.264583" />
    </mask>
    <radialGradient
       cx="1.7583691"
       cy="1.5082694"
       fx="1.7583691"
       fy="1.5082694"
       r="89.498177"
       gradientTransform="scale(0.85280287,1.1726039)"
       id="radialGradient-16-7"
       gradientUnits="userSpaceOnUse">
      <stop
         stop-color="#FFFFFF"
         stop-opacity="0.1"
         offset="0%"
         id="stop3084" />
      <stop
         stop-color="#FFFFFF"
         stop-opacity="0"
         offset="100%"
         id="stop3086" />
    </radialGradient>
    <mask
       id="mask-2-6"
       fill="#ffffff">
      <path
         d="M 7.7721354,0 H 1.1658203 C 0.52461914,0 0,0.52766336 0,1.1725852 V 16.025331 c 0,0.644922 0.52461914,1.172586 1.1658203,1.172586 H 11.269596 c 0.641201,0 1.165821,-0.527664 1.165821,-1.172586 V 4.690341 Z"
         id="use2774"
         style="stroke-width:0.264583" />
    </mask>
    <linearGradient
       x1="38.940922"
       y1="17.791889"
       x2="38.940922"
       y2="32.769283"
       id="linearGradient-5-0"
       gradientTransform="scale(0.99722329,1.0027844)"
       gradientUnits="userSpaceOnUse">
      <stop
         stop-color="#1A237E"
         stop-opacity="0.2"
         offset="0%"
         id="stop2757" />
      <stop
         stop-color="#1A237E"
         stop-opacity="0.02"
         offset="100%"
         id="stop2759" />
    </linearGradient>
    <mask
       id="mask-4-6"
       fill="#ffffff">
      <path
         d="M 7.7721354,0 H 1.1658203 C 0.52461914,0 0,0.52766336 0,1.1725852 V 16.025331 c 0,0.644922 0.52461914,1.172586 1.1658203,1.172586 H 11.269596 c 0.641201,0 1.165821,-0.527664 1.165821,-1.172586 V 4.690341 Z"
         id="use2780"
         style="stroke-width:0.264583" />
    </mask>
    <mask
       id="mask-7-4"
       fill="#ffffff">
      <path
         d="M 7.7721354,0 H 1.1658203 C 0.52461914,0 0,0.52766336 0,1.1725852 V 16.025331 c 0,0.644922 0.52461914,1.172586 1.1658203,1.172586 H 11.269596 c 0.641201,0 1.165821,-0.527664 1.165821,-1.172586 V 4.690341 Z"
         id="use2789"
         style="stroke-width:0.264583" />
    </mask>
    <mask
       id="mask-9-0"
       fill="#ffffff">
      <path
         d="M 7.7721354,0 H 1.1658203 C 0.52461914,0 0,0.52766336 0,1.1725852 V 16.025331 c 0,0.644922 0.52461914,1.172586 1.1658203,1.172586 H 11.269596 c 0.641201,0 1.165821,-0.527664 1.165821,-1.172586 V 4.690341 Z"
         id="use2797"
         style="stroke-width:0.264583" />
    </mask>
    <mask
       id="mask-11-0"
       fill="#ffffff">
      <path
         d="M 7.7721354,0 H 1.1658203 C 0.52461914,0 0,0.52766336 0,1.1725852 V 16.025331 c 0,0.644922 0.52461914,1.172586 1.1658203,1.172586 H 11.269596 c 0.641201,0 1.165821,-0.527664 1.165821,-1.172586 V 4.690341 Z"
         id="use2809"
         style="stroke-width:0.264583" />
    </mask>
    <mask
       id="mask-13-4"
       fill="#ffffff">
      <path
         d="M 7.7721354,0 H 1.1658203 C 0.52461914,0 0,0.52766336 0,1.1725852 V 16.025331 c 0,0.644922 0.52461914,1.172586 1.1658203,1.172586 H 11.269596 c 0.641201,0 1.165821,-0.527664 1.165821,-1.172586 V 4.690341 Z"
         id="use2818"
         style="stroke-width:0.264583" />
    </mask>
    <mask
       id="mask-15-6"
       fill="#ffffff">
      <path
         d="M 7.7721354,0 H 1.1658203 C 0.52461914,0 0,0.52766336 0,1.1725852 V 16.025331 c 0,0.644922 0.52461914,1.172586 1.1658203,1.172586 H 11.269596 c 0.641201,0 1.165821,-0.527664 1.165821,-1.172586 V 4.690341 Z"
         id="use2827"
         style="stroke-width:0.264583" />
    </mask>
    <radialGradient
       cx="1.7510446"
       cy="1.5019867"
       fx="1.7510446"
       fy="1.5019867"
       r="89.125366"
       gradientTransform="scale(0.8503393,1.1760012)"
       id="radialGradient-16-5"
       gradientUnits="userSpaceOnUse">
      <stop
         stop-color="#FFFFFF"
         stop-opacity="0.1"
         offset="0%"
         id="stop2767" />
      <stop
         stop-color="#FFFFFF"
         stop-opacity="0"
         offset="100%"
         id="stop2769" />
    </radialGradient>
  </defs>
  <g
     inkscape:label="Layer 1"
     inkscape:groupmode="layer"
     id="layer1">
    <text
       xml:space="preserve"
       style="font-style:normal;font-variant:normal;font-weight:500;font-stretch:normal;font-size:12.827px;line-height:1.25;font-family:'Noto Sans';-inkscape-font-specification:'Noto Sans, Medium';font-variant-ligatures:normal;font-variant-caps:normal;font-variant-numeric:normal;font-variant-east-asian:normal;text-align:center;letter-spacing:0px;word-spacing:0px;text-anchor:middle;fill:#5290f5;fill-opacity:1;stroke-width:0.558076"
       x="8.9491215"
       y="11.728671"
       id="text6726"><tspan
         sodipodi:role="line"
         id="tspan6724"
         style="font-style:normal;font-variant:normal;font-weight:bold;font-stretch:condensed;font-size:12.827px;font-family:'Noto Sans';-inkscape-font-specification:'Noto Sans Bold Condensed';font-variant-ligatures:normal;font-variant-caps:normal;font-variant-numeric:normal;font-variant-east-asian:normal;fill:#5290f5;fill-opacity:1;stroke-width:0.558076"
         x="8.9491215"
         y="11.728671">D</tspan></text>
    <path
       id="rect3409"
       style="fill:#ff0000;stroke:none;stroke-width:0.195657;stop-color:#000000"
       d="M 7.8170277,3.9441848 V 5.6791084 H 1.1248021 V 8.1579037 H 7.8170277 V 9.8928288 L 10.791339,6.9185052 Z"
       inkscape:export-filename="/home/luighi/activities-docs-generator/images/logo-generator.png"
       inkscape:export-xdpi="300"
       inkscape:export-ydpi="300" />
    <text
       xml:space="preserve"
       style="font-weight:500;font-size:12.7px;line-height:1.25;font-family:'Noto Sans';-inkscape-font-specification:'Noto Sans Medium';text-align:center;letter-spacing:0px;word-spacing:0px;text-anchor:middle;fill:#24a566;fill-opacity:1;stroke-width:0.403986"
       x="2.9527693"
       y="10.09308"
       id="text7286"><tspan
         sodipodi:role="line"
         id="tspan7284"
         style="font-style:normal;font-variant:normal;font-weight:bold;font-stretch:condensed;font-size:12.7px;font-family:'Noto Sans';-inkscape-font-specification:'Noto Sans, Bold Condensed';font-variant-ligatures:normal;font-variant-caps:normal;font-variant-numeric:normal;font-variant-east-asian:normal;fill:#24a566;fill-opacity:1;stroke-width:0.403986"
         x="2.9527693"
         y="10.09308">S</tspan></text>
  </g>
</svg>
